<svg width="60" height="60" viewBox="0 0 60 60" fill="none" xmlns="http://www.w3.org/2000/svg">
<path d="M32.5 17.5H27.5V32.5H32.5V17.5Z" fill="black"/>
<path d="M32.5 37.5H27.5V42.5H32.5V37.5Z" fill="black"/>
<path fill-rule="evenodd" clip-rule="evenodd" d="M32.5 2.5H27.5V7.5H22.5V12.5H17.5V17.5H12.5V22.5H7.5V27.5H2.5V32.5H7.5V37.5H12.5V42.5H17.5V47.5H22.5V52.5H27.5V57.5H32.5V52.5H37.5V47.5H42.5V42.5H47.5V37.5H52.5V32.5H57.5V27.5H52.5V22.5H47.5V17.5H42.5V12.5H37.5V7.5H32.5V2.5ZM32.5 7.5V12.5H37.5V17.5H42.5V22.5H47.5V27.5H52.5V32.5H47.5V37.5H42.5V42.5H37.5V47.5H32.5V52.5H27.5V47.5H22.5V42.5H17.5V37.5H12.5V32.5H7.5V27.5H12.5V22.5H17.5V17.5H22.5V12.5H27.5V7.5H32.5Z" fill="black"/>
</svg>
