<svg width="40" height="40" viewBox="0 0 40 40" fill="none" xmlns="http://www.w3.org/2000/svg">
<path d="M10.0001 27.2223H8.33341V25.5557H10.0001V27.2223Z" fill="#474350"/>
<path d="M30.0001 27.2223H31.6667V25.5557H30.0001V27.2223Z" fill="#474350"/>
<path d="M16.6667 18.889H18.3334V20.5557H16.6667V18.889Z" fill="#474350"/>
<path d="M16.6667 17.2223H15.0001V18.889L16.6667 18.889V17.2223Z" fill="#474350"/>
<path d="M10.0001 17.2223L8.33341 17.2223V18.889H10.0001V17.2223Z" fill="#474350"/>
<path d="M26.6667 18.889H28.3334V20.5557H26.6667V18.889Z" fill="#474350"/>
<path d="M26.6667 13.889L25.0001 13.889V12.2223H26.6667V13.889Z" fill="#474350"/>
<path d="M26.6667 17.2223L28.3334 17.2223V13.889L26.6667 13.889V17.2223Z" fill="#474350"/>
<path d="M25.0001 12.2223V10.5557L16.6667 10.5557V12.2223H25.0001Z" fill="#474350"/>
<path d="M16.6667 12.2223H15.0001V15.5557L16.6667 15.5557V12.2223Z" fill="#474350"/>
<path d="M10.0001 15.5557V17.2223L15.0001 17.2223V15.5557L10.0001 15.5557Z" fill="#474350"/>
<path d="M6.66675 25.5557H8.33341V18.889H6.66675V25.5557Z" fill="#474350"/>
<path d="M10.0001 27.2223V28.889H30.0001V27.2223H10.0001Z" fill="#474350"/>
<path d="M31.6667 25.5557H33.3334V18.889L31.6667 18.889V25.5557Z" fill="#474350"/>
<path d="M31.6667 18.889V17.2223H28.3334V18.889L31.6667 18.889Z" fill="#474350"/>
<path fill-rule="evenodd" clip-rule="evenodd" d="M25.0002 12.2224H16.6668V15.5557H15.0002V17.2224H10.0002V18.8891H8.3335V25.5557H10.0002V27.2224H30.0002V25.5557H31.6668V18.8891H28.3335V17.2224H26.6668V13.8891H25.0002V12.2224ZM28.3335 18.8891V20.5557H26.6668V18.8891H28.3335ZM16.6668 18.8891H15.0002V17.2224H16.6668V18.8891ZM16.6668 18.8891H18.3335V20.5557H16.6668V18.8891Z" fill="#FFFFF3"/>
</svg>
