<svg width="30" height="34" viewBox="0 0 30 34" fill="none" xmlns="http://www.w3.org/2000/svg">
<path d="M6.66667 0H23.3333V3.33333H6.66667V0ZM3.33333 6.66667V3.33333H6.66667V6.66667H3.33333ZM3.33333 20H0V6.66667H3.33333V20ZM6.66667 23.3333H3.33333V20H6.66667V23.3333ZM10 26.6667H6.66667V23.3333H10V26.6667ZM13.3333 30H10V26.6667H13.3333V30ZM16.6667 30V33.3333H13.3333V30H16.6667ZM20 26.6667V30H16.6667V26.6667H20ZM23.3333 23.3333V26.6667H20V23.3333H23.3333ZM26.6667 20V23.3333H23.3333V20H26.6667ZM26.6667 6.66667H30V20H26.6667V6.66667ZM26.6667 6.66667V3.33333H23.3333V6.66667H26.6667ZM18.3333 10H11.6667V16.6667H18.3333V10Z" fill="#474350"/>
</svg>
