<svg width="46" height="48" viewBox="0 0 46 48" fill="none" xmlns="http://www.w3.org/2000/svg">
<path d="M4.71497 2.28H41.285V4.575H39.005V6.855H41.285V11.43H43.58V45.72H45.86V9.15H43.58V2.28H45.86V0H4.71497V2.28Z" fill="#474350"/>
<path d="M9.28997 45.72V11.43H23V9.15002H4.71497V11.43H7.00997V45.72H4.71497V48H43.58V45.72H9.28997Z" fill="#474350"/>
<path d="M36.725 16.005H34.43V9.15001H32.15V6.85501H34.43V4.57501H23V6.85501H25.295V9.15001H27.575V31.995H29.855V29.715H32.15V27.435H34.43V29.715H36.725V31.995H39.005V9.15001H36.725V16.005Z" fill="#474350"/>
<path d="M36.7249 6.85498H34.4299V9.14998H36.7249V6.85498Z" fill="#474350"/>
<path d="M20.72 4.57501H7.01001V6.85501H20.72V4.57501Z" fill="#474350"/>
<path d="M4.71506 43.425H2.43506V45.72H4.71506V43.425Z" fill="#474350"/>
<path d="M4.71506 2.28003H2.43506V4.57503H4.71506V2.28003Z" fill="#474350"/>
<path d="M2.43501 9.15001H4.71501V6.85501H2.43501V4.57501H0.140015V43.425H2.43501V9.15001Z" fill="#474350"/>
</svg>
