<svg width="30" height="30" viewBox="0 0 30 30" fill="none" xmlns="http://www.w3.org/2000/svg">
<path d="M12.9166 14.5833V13.3333H7.91663L7.91663 14.5833H12.9166Z" fill="#474350"/>
<path d="M7.91663 8.33325L6.66663 8.33325L6.66663 13.3333H7.91663V8.33325Z" fill="#474350"/>
<path d="M12.9166 8.33325V7.08325L7.91663 7.08325V8.33325L12.9166 8.33325Z" fill="#474350"/>
<path d="M14.1666 8.33325L12.9166 8.33325V13.3333H14.1666V8.33325Z" fill="#474350"/>
<path d="M16.6666 8.33325L15.4166 8.33325V13.3333H16.6666V8.33325Z" fill="#474350"/>
<path d="M21.6666 8.33325V7.08325L16.6666 7.08325V8.33325L21.6666 8.33325Z" fill="#474350"/>
<path d="M21.6666 14.5833V13.3333H16.6666V14.5833H21.6666Z" fill="#474350"/>
<path d="M22.9166 8.33325L21.6666 8.33325V13.3333H22.9166V8.33325Z" fill="#474350"/>
<path d="M7.91663 17.0833H6.66663L6.66663 22.0833H7.91663V17.0833Z" fill="#474350"/>
<path d="M12.9166 17.0833V15.8333H7.91663V17.0833H12.9166Z" fill="#474350"/>
<path d="M12.9166 23.3333V22.0833H7.91663L7.91663 23.3333H12.9166Z" fill="#474350"/>
<path d="M14.1666 17.0833H12.9166V22.0833H14.1666V17.0833Z" fill="#474350"/>
<path d="M16.6666 17.0833H15.4166V22.0833H16.6666V17.0833Z" fill="#474350"/>
<path d="M21.6666 23.3333V22.0833H16.6666V23.3333H21.6666Z" fill="#474350"/>
<path d="M22.9166 17.0833H21.6666V22.0833H22.9166V17.0833Z" fill="#474350"/>
<path d="M21.6666 17.0833V15.8333H16.6666V17.0833H21.6666Z" fill="#474350"/>
</svg>
