<svg width="25" height="25" viewBox="0 0 25 25" fill="none" xmlns="http://www.w3.org/2000/svg">
<path d="M3.42857 14.4286V15.8571H6.28571V14.4286H3.42857Z" fill="black"/>
<path d="M2 21.5714H3.42857V15.8571H2L2 21.5714Z" fill="black"/>
<path d="M6.28571 21.5714H7.71429V15.8571H6.28571V21.5714Z" fill="black"/>
<path d="M3.42857 21.5714V23H6.28571V21.5714H3.42857Z" fill="black"/>
<path d="M10.5714 21.5714V23H13.4286V21.5714H10.5714Z" fill="black"/>
<path d="M9.14286 21.5714H10.5714V10.1429H9.14286V21.5714Z" fill="black"/>
<path d="M13.4286 21.5714H14.8571V10.1429H13.4286V21.5714Z" fill="black"/>
<path d="M10.5714 8.71429V10.1429H13.4286V8.71429H10.5714Z" fill="black"/>
<path d="M16.2857 21.5714H17.7143V4.42857H16.2857V21.5714Z" fill="black"/>
<path d="M17.7143 3V4.42857H20.5714V3H17.7143Z" fill="black"/>
<path d="M20.5714 21.5714H22V4.42857H20.5714V21.5714Z" fill="black"/>
<path d="M17.7143 21.5714V23H20.5714V21.5714H17.7143Z" fill="black"/>
<path d="M17.7144 21.5713V4.42847H20.5716V21.5713H17.7144Z" fill="#474350"/>
<path d="M10.5716 10.1428V21.5713H13.4287V10.1428H10.5716Z" fill="#474350"/>
<path d="M3.42871 15.857V21.5713H6.28585V15.857H3.42871Z" fill="#474350"/>
</svg>
