<svg width="40" height="40" viewBox="0 0 40 40" fill="none" xmlns="http://www.w3.org/2000/svg">
<path d="M21.6666 10.0001L23.3333 10.0001L23.3333 8.33344H21.6666V10.0001Z" fill="black"/>
<path d="M18.3333 10.0001L16.6666 10.0001L16.6666 8.33344H18.3333V10.0001Z" fill="black"/>
<path d="M30 18.3334H31.6666V16.6667L29.9999 16.6668L30 18.3334Z" fill="black"/>
<path d="M9.99996 18.3334H8.33329V16.6667H9.99996V18.3334Z" fill="black"/>
<path d="M30 23.3334H31.6666L31.6666 21.6668L30 21.6667V23.3334Z" fill="black"/>
<path d="M9.99996 23.3334H8.33329L8.33329 21.6668L9.99996 21.6667V23.3334Z" fill="black"/>
<path d="M21.6666 31.6667L23.3333 31.6668L23.3333 30.0001L21.6666 30.0001L21.6666 31.6667Z" fill="black"/>
<path d="M18.3333 31.6667L16.6666 31.6668L16.6666 30.0001L18.3333 30.0001L18.3333 31.6667Z" fill="black"/>
<path d="M25 16.6667H23.3333V23.3334H25V16.6667Z" fill="black"/>
<path d="M23.3333 16.6667L23.3333 15.0001H16.6666L16.6666 16.6667H23.3333Z" fill="black"/>
<path d="M16.6666 16.6667H15V23.3334H16.6666V16.6667Z" fill="black"/>
<path d="M23.3333 25.0001L23.3333 23.3334H16.6666L16.6666 25.0001H23.3333Z" fill="black"/>
<path d="M11.6666 28.3334L11.6666 30.0001H16.6666V28.3334L11.6666 28.3334Z" fill="black"/>
<path d="M9.99995 28.3334H11.6666V23.3334L9.99996 23.3334L9.99995 28.3334Z" fill="black"/>
<path d="M8.33329 18.3334L6.66663 18.3334V21.6668H8.33329L8.33329 18.3334Z" fill="black"/>
<path d="M9.99996 16.6667L11.6666 16.6668L11.6666 11.6668L9.99995 11.6667L9.99996 16.6667Z" fill="black"/>
<path d="M16.6666 11.6668V10.0001H11.6666V11.6668H16.6666Z" fill="black"/>
<path d="M21.6666 8.33344L21.6666 6.66675H18.3333L18.3333 8.33344H21.6666Z" fill="black"/>
<path d="M23.3333 10.0001V11.6668H28.3333V10.0001H23.3333Z" fill="black"/>
<path d="M28.3333 16.6668H29.9999V11.6667L28.3333 11.6668L28.3333 16.6668Z" fill="black"/>
<path d="M33.3333 18.3334L31.6666 18.3334L31.6666 21.6668H33.3333V18.3334Z" fill="black"/>
<path d="M28.3333 28.3334H29.9999L30 23.3334L28.3333 23.3334V28.3334Z" fill="black"/>
<path d="M28.3333 30.0001L28.3333 28.3334L23.3333 28.3334V30.0001H28.3333Z" fill="black"/>
<path d="M21.6666 33.3334V31.6667H18.3333V33.3334H21.6666Z" fill="black"/>
<path fill-rule="evenodd" clip-rule="evenodd" d="M11.6666 11.6668H16.6666V10.0002H18.3333V8.3335H21.6666V10.0002H23.3333V11.6668H28.3333V16.6668H29.9999V18.3335H31.6666V21.6668H29.9999V23.3335H28.3333V28.3335H23.3333V30.0002H21.6666V31.6668H18.3333V30.0002H16.6666V28.3335H11.6666V23.3335H9.99992V21.6668H8.33325V18.3335H9.99992V16.6668H11.6666V11.6668ZM16.6666 15.0002V16.6668H14.9999V23.3335H16.6666V25.0002H23.3333V23.3335H24.9999V16.6668H23.3333V15.0002H16.6666Z" fill="#FFFFF3"/>
</svg>
