<svg width="18" height="15" viewBox="0 0 18 15" fill="none" xmlns="http://www.w3.org/2000/svg">
<path d="M1.5 12.1667H2.75V13.4167H1.5V12.1667Z" fill="#474350"/>
<path d="M15.25 12.1667H16.5V13.4167H15.25V12.1667Z" fill="#474350"/>
<path d="M12.75 5.91675H14V7.16675H12.75V5.91675Z" fill="#474350"/>
<path d="M11.5 7.16675H12.75V8.41675H11.5V7.16675Z" fill="#474350"/>
<path d="M14 4.66675H15.25V5.91675H14V4.66675Z" fill="#474350"/>
<path d="M2.75 4.66675H4V5.91675H2.75V4.66675Z" fill="#474350"/>
<path d="M4 5.91675H5.25V7.16675H4V5.91675Z" fill="#474350"/>
<path d="M5.25 7.16675H6.5V8.41675H5.25V7.16675Z" fill="#474350"/>
<path d="M16.5 12.1667H17.75V3.41675H16.5V2.16675H15.25V4.66675H16.5V12.1667Z" fill="#474350"/>
<path d="M11.5 9.66675V8.41675H6.5V9.66675H11.5Z" fill="#474350"/>
<path d="M1.5 3.41675H0.25V12.1667H1.5V4.66675H2.75V2.16675H1.5V3.41675Z" fill="#474350"/>
<path d="M2.75 0.916748V2.16675H15.25V0.916748H2.75Z" fill="#474350"/>
<path d="M2.75 13.4167V14.6667H15.25V13.4167H2.75Z" fill="#474350"/>
</svg>
