<svg width="34" height="32" viewBox="0 0 34 32" fill="none" xmlns="http://www.w3.org/2000/svg">
<path d="M31.5834 14.6111H29.5V12.5278H31.5834V14.6111Z" fill="black"/>
<path d="M25.3334 18.7778H23.25V16.6944H25.3334V18.7778Z" fill="black"/>
<path d="M23.25 20.8611H21.1667V18.7778H23.25V20.8611Z" fill="black"/>
<path d="M23.25 25.0278H21.1667V22.9444H23.25V25.0278Z" fill="black"/>
<path d="M25.3334 27.1111H23.25V25.0278H25.3334V27.1111Z" fill="black"/>
<path d="M27.4167 29.1944H25.3334V27.1111H27.4167V29.1944Z" fill="black"/>
<path d="M8.66671 29.1944H6.58337V27.1111H8.66671V29.1944Z" fill="black"/>
<path d="M10.75 27.1111H8.66671V25.0278H10.75V27.1111Z" fill="black"/>
<path d="M12.8334 25.0278H10.75V22.9444H12.8334V25.0278Z" fill="black"/>
<path d="M12.8334 20.8611H10.75V18.7778H12.8334V20.8611Z" fill="black"/>
<path d="M10.75 18.7778H8.66671V16.6944H10.75V18.7778Z" fill="black"/>
<path d="M4.50004 14.6111H2.41671V12.5278H4.50004V14.6111Z" fill="black"/>
<path d="M12.8334 22.9444H14.9167V20.8611H12.8334V22.9444Z" fill="black"/>
<path d="M19.0834 22.9444H21.1667V20.8611H19.0834V22.9444Z" fill="black"/>
<path d="M8.66671 0.027771V2.1111H25.3334V0.027771H8.66671Z" fill="black"/>
<path d="M2.41671 2.1111V4.19444H8.66671V2.1111H2.41671Z" fill="black"/>
<path d="M4.50004 6.27777H6.58337V10.4444H4.50004V6.27777Z" fill="black"/>
<path d="M2.41671 4.19444H0.333374V12.5278H2.41671V4.19444Z" fill="black"/>
<path d="M29.5 10.4444H27.4167V6.27777H29.5V10.4444Z" fill="black"/>
<path d="M25.3334 2.1111V4.19444H31.5834V2.1111H25.3334Z" fill="black"/>
<path d="M33.6667 4.19444H31.5834V12.5278H33.6667V4.19444Z" fill="black"/>
<path d="M29.5 16.6944V14.6111H25.3334V16.6944H29.5Z" fill="black"/>
<path d="M8.66671 16.6944V14.6111H4.50004V16.6944H8.66671Z" fill="black"/>
<path d="M25.3334 31.2778V29.1944H8.66671V31.2778H25.3334Z" fill="black"/>
</svg>
