<svg width="23" height="26" viewBox="0 0 23 26" fill="none" xmlns="http://www.w3.org/2000/svg">
<path d="M10.2222 0H12.7778V25.5556H10.2222V23H7.66667V20.4444H10.2222V5.11111H7.66667V2.55556H10.2222V0ZM5.11111 7.66667V5.11111H7.66667V7.66667H5.11111ZM5.11111 17.8889H0V7.66667H5.11111V10.2222H2.55556V15.3333H5.11111V17.8889ZM5.11111 17.8889V20.4444H7.66667V17.8889H5.11111ZM17.8889 10.2222H15.3333V15.3333H17.8889V10.2222ZM20.4444 7.66667H23V17.8889H20.4444V7.66667ZM20.4444 17.8889V20.4444H15.3333V17.8889H20.4444ZM20.4444 5.11111V7.66667H15.3333V5.11111H20.4444Z" fill="#474350"/>
</svg>
