<svg width="24" height="24" viewBox="0 0 24 24" fill="none" xmlns="http://www.w3.org/2000/svg">
<path d="M11 18H13V20H11V18Z" fill="black"/>
<path d="M12 14H14V16H12V14Z" fill="black"/>
<path d="M10 14H12V16H10V14Z" fill="black"/>
<path d="M12 9H14V11H12V9Z" fill="black"/>
<path d="M11 4H13V6H11V4Z" fill="black"/>
<path d="M13 4H15V6H13V4Z" fill="black"/>
<path d="M15 6H17V8H15V6Z" fill="black"/>
<path d="M17 6H19V8H17V6Z" fill="black"/>
<path d="M19 8H21V10H19V8Z" fill="black"/>
<path d="M21 10H23V12H21V10Z" fill="black"/>
<path d="M9 4H11V6H9V4Z" fill="black"/>
<path d="M7 6H9V8H7V6Z" fill="black"/>
<path d="M5 6H7V8H5V6Z" fill="black"/>
<path d="M3 8H5V10H3V8Z" fill="black"/>
<path d="M1 10H3V12H1V10Z" fill="black"/>
<path d="M14 11H16V13H14V11Z" fill="black"/>
<path d="M10 9H12V11H10V9Z" fill="black"/>
<path d="M8 11H10V13H8V11Z" fill="black"/>
<path d="M6 11H8V13H6V11Z" fill="black"/>
<path d="M4 13H6V15H4V13Z" fill="black"/>
<path d="M16 11H18V13H16V11Z" fill="black"/>
<path d="M18 13H20V15H18V13Z" fill="black"/>
<path d="M14 16H16V18H14V16Z" fill="black"/>
<path d="M8 16H10V18H8V16Z" fill="black"/>
</svg>
