<svg width="20" height="20" viewBox="0 0 20 20" fill="none" xmlns="http://www.w3.org/2000/svg">
<g clip-path="url(#clip0_158_91)">
<path d="M18.0969 9.52187H17.1469V7.61562H16.1907V6.66562H15.2407V5.71562H14.2844V4.75937H13.3344V3.80937H12.3844V2.85937H10.4782V1.90312H7.62192V0.953125H1.90942V2.85937H7.62192V3.80937H10.4782V4.75937H12.3844V5.71562H13.3344V6.66562H14.2844V7.61562H15.2407V9.52187H16.1907V12.3781H17.1469V18.0969H19.0469V12.3781H18.0969V9.52187Z" fill="#474350"/>
<path d="M1.90942 4.75928V6.66553H6.66567V7.61553H8.57192V8.57178H10.4782V9.52178H11.4282V11.428H12.3844V13.3343H13.3344V18.0968H15.2407V13.3343H14.2844V11.428H13.3344V9.52178H12.3844V8.57178H11.4282V7.61553H10.4782V6.66553H8.57192V5.71553H6.66567V4.75928H1.90942Z" fill="#474350"/>
<path d="M1.90942 10.478H5.71567V11.428H7.62192V12.378H8.57192V14.2843H9.52817V18.0968H11.4282V14.2843H10.4782V12.378H9.52817V11.428H8.57192V10.478H7.62192V9.52178H5.71567V8.57178H1.90942V10.478Z" fill="#474350"/>
<path d="M1.90937 15.2344H0.953125V18.0969H1.90937V19.0469H4.76562V18.0969H5.71562V15.2344H4.76562V14.2844H1.90937V15.2344Z" fill="#474350"/>
</g>
<defs>
<clipPath id="clip0_158_91">
<rect width="20" height="20" fill="white"/>
</clipPath>
</defs>
</svg>
