<svg width="100" height="100" viewBox="0 0 100 100" fill="none" xmlns="http://www.w3.org/2000/svg">
<path d="M25 68.0555H20.8333V63.8889H25V68.0555Z" fill="#474350"/>
<path d="M75 68.0555H79.1667V63.8889H75V68.0555Z" fill="#474350"/>
<path d="M41.6667 47.2222H45.8333V51.3889H41.6667V47.2222Z" fill="#474350"/>
<path d="M41.6667 43.0555H37.5V47.2222L41.6667 47.2222V43.0555Z" fill="#474350"/>
<path d="M25 43.0555L20.8333 43.0555V47.2222H25V43.0555Z" fill="#474350"/>
<path d="M66.6667 47.2222H70.8333V51.3889H66.6667V47.2222Z" fill="#474350"/>
<path d="M66.6667 34.7222L62.5 34.7222V30.5556H66.6667V34.7222Z" fill="#474350"/>
<path d="M66.6667 43.0555L70.8333 43.0555V34.7222L66.6667 34.7222V43.0555Z" fill="#474350"/>
<path d="M62.5 30.5556V26.3889L41.6667 26.3889V30.5556H62.5Z" fill="#474350"/>
<path d="M41.6667 30.5556H37.5V38.8889L41.6667 38.8889V30.5556Z" fill="#474350"/>
<path d="M25 38.8889V43.0555L37.5 43.0555V38.8889L25 38.8889Z" fill="#474350"/>
<path d="M16.6667 63.8889H20.8333V47.2222H16.6667V63.8889Z" fill="#474350"/>
<path d="M25 68.0555V72.2222H75V68.0555H25Z" fill="#474350"/>
<path d="M79.1667 63.8889H83.3333V47.2222L79.1667 47.2222V63.8889Z" fill="#474350"/>
<path d="M79.1667 47.2222V43.0555H70.8333V47.2222L79.1667 47.2222Z" fill="#474350"/>
<path fill-rule="evenodd" clip-rule="evenodd" d="M62.5 30.5555H41.6666V38.8889H37.5V43.0555H25V47.2222H20.8333V63.8889H25V68.0555H75V63.8889H79.1666V47.2222H70.8333V43.0555H66.6666V34.7222H62.5V30.5555ZM70.8333 47.2222V51.3889H66.6666V47.2222H70.8333ZM41.6666 47.2222H37.5V43.0555H41.6666V47.2222ZM41.6666 47.2222H45.8333V51.3889H41.6666V47.2222Z" fill="#FDF0D8"/>
</svg>
