<svg width="24" height="23" viewBox="0 0 24 23" fill="none" xmlns="http://www.w3.org/2000/svg">
<path d="M16.6667 15.4444V20.4444H15.0001V18.7778H10.0001H8.33342V13.7778H5.00008V12.1111H1.66675V10.4444H5.00008V8.77778H8.33342V7.11111H11.6667V5.44444H15.0001V3.77778H18.3334V2.11111H21.6667V5.44444H20.0001V10.4444H18.3334V15.4444H16.6667Z" fill="white"/>
<path d="M0 10.4444H1.66667V12.1111H0V10.4444Z" fill="black"/>
<path d="M15 20.4444H16.6667V22.1111H15V20.4444Z" fill="black"/>
<path d="M13.3333 18.7778H15V20.4444H13.3333V18.7778Z" fill="black"/>
<path d="M10 12.1111H11.6667V13.7778H10V12.1111Z" fill="black"/>
<path d="M11.6667 10.4444H13.3333V12.1111H11.6667V10.4444Z" fill="black"/>
<path d="M13.3333 8.77778H15V10.4444H13.3333V8.77778Z" fill="black"/>
<path d="M15 7.11111H16.6667V8.77778H15V7.11111Z" fill="black"/>
<path d="M16.6667 5.44444H18.3333V7.11111H16.6667V5.44444Z" fill="black"/>
<path d="M18.3333 3.77778H20V5.44444H18.3333V3.77778Z" fill="black"/>
<path d="M1.66667 8.77778V10.4444H5V8.77778H1.66667Z" fill="black"/>
<path d="M5 13.7778V12.1111H1.66667V13.7778H5Z" fill="black"/>
<path d="M10 18.7778H8.33333V15.4444H10V13.7778H5V15.4444H6.66667V22.1111H8.33333V20.4444H10V18.7778Z" fill="black"/>
<path d="M13.3333 17.1111H11.6667V15.4444H10V18.7778H13.3333V17.1111Z" fill="black"/>
<path d="M18.3333 15.4444H16.6667V20.4444H18.3333V15.4444Z" fill="black"/>
<path d="M20 10.4444H18.3333V15.4444H20V10.4444Z" fill="black"/>
<path d="M5 7.11111V8.77778H8.33333V7.11111H5Z" fill="black"/>
<path d="M8.33333 5.44444V7.11111H11.6667V5.44444H8.33333Z" fill="black"/>
<path d="M11.6667 3.77778V5.44444H15V3.77778H11.6667Z" fill="black"/>
<path d="M18.3333 3.77778V2.11111H15V3.77778H18.3333Z" fill="black"/>
<path d="M18.3333 0.444443V2.11111H21.6667V0.444443H18.3333Z" fill="black"/>
<path d="M23.3333 2.11111H21.6667V5.44444H23.3333V2.11111Z" fill="black"/>
<path d="M21.6667 5.44444H20V10.4444H21.6667V5.44444Z" fill="black"/>
</svg>
