<svg width="40" height="40" viewBox="0 0 40 40" fill="none" xmlns="http://www.w3.org/2000/svg">
<path d="M21.6667 5H18.3333V8.33333H21.6667V5Z" fill="#474350"/>
<path d="M28.3333 8.33333H31.6667V11.6667H28.3333V8.33333Z" fill="#474350"/>
<path d="M15 11.6667H25V15H15V11.6667Z" fill="#474350"/>
<path d="M15 25H11.6667V15H15V25Z" fill="#474350"/>
<path d="M25 25V28.3333H15V25H25Z" fill="#474350"/>
<path d="M25 25H28.3333V15H25V25Z" fill="#474350"/>
<path d="M21.6667 18.3333H18.3333V21.6667H21.6667V18.3333Z" fill="#474350"/>
<path d="M8.33333 8.33333H11.6667V11.6667H8.33333V8.33333Z" fill="#474350"/>
<path d="M8.33333 18.3333H5V21.6667H8.33333V18.3333Z" fill="#474350"/>
<path d="M8.33333 28.3333H11.6667V31.6667H8.33333V28.3333Z" fill="#474350"/>
<path d="M21.6667 31.6667H18.3333V35H21.6667V31.6667Z" fill="#474350"/>
<path d="M28.3333 28.3333H31.6667V31.6667H28.3333V28.3333Z" fill="#474350"/>
<path d="M35 18.3333H31.6667V21.6667H35V18.3333Z" fill="#474350"/>
</svg>
