<svg width="150" height="145" viewBox="0 0 150 145" fill="none" xmlns="http://www.w3.org/2000/svg">
<path fill-rule="evenodd" clip-rule="evenodd" d="M57 8H75V17.1429H84V26.2857H93V99.4286H39V26.2857H48V17.1429H57V8ZM57 62.8571V53.7143H75V62.8571H57ZM75 35.4286H84V53.7143H75V35.4286ZM75 35.4286V26.2857H57V35.4286H48V53.7143H57V35.4286H75Z" fill="white"/>
<path d="M30 108.571H21V117.714H12V90.2857H21V81.1429H30V108.571Z" fill="white"/>
<path d="M120 90.2857H111V81.1429H102V108.571H111V117.714H120V90.2857Z" fill="white"/>
<path d="M48 108.571H84V126.857H75V136H57V126.857H48V108.571Z" fill="white"/>
<path d="M75 0V9H57V0H75Z" fill="black"/>
<path d="M48 18V9H57V18H48Z" fill="black"/>
<path d="M39 27V18H48V27H39Z" fill="black"/>
<path fill-rule="evenodd" clip-rule="evenodd" d="M93 27V99H39V27H30V72H21V81H12V90H3V117H12V126H21V117H30V108H39V126H48V135H57V144H75V135H84V126H93V108H102V117H111V126H120V117H129V90H120V81H111V72H102V27H93ZM111 81V90H120V117H111V108H102V81H111ZM84 126H75V135H57V126H48V108H84V126ZM30 108H21V117H12V90H21V81H30V108Z" fill="black"/>
<path d="M84 18H93V27H84V18Z" fill="black"/>
<path d="M84 18V9H75V18H84Z" fill="black"/>
<path d="M57 36V54H48V36H57Z" fill="black"/>
<path d="M75 36H57V27H75V36Z" fill="black"/>
<path d="M75 54V36H84V54H75Z" fill="black"/>
<path d="M75 54H57V63H75V54Z" fill="black"/>
</svg>
