<svg width="91" height="91" viewBox="0 0 91 91" fill="none" xmlns="http://www.w3.org/2000/svg">
<path d="M64.875 6.75H26.125V13.2083H13.2083V26.125H6.75V64.875H13.2083V77.7917H26.125V84.25H64.875V77.7917H77.7917V64.875H84.25V26.125H77.7917V13.2083H64.875V6.75Z" fill="white"/>
<path d="M26.125 58.4167H32.5833V64.875H26.125V58.4167Z" fill="black"/>
<path d="M64.875 58.4167H58.4167V64.875H64.875V58.4167Z" fill="black"/>
<path d="M26.125 26.125H32.5833V32.5834H26.125V26.125Z" fill="black"/>
<path d="M64.875 26.125H58.4167V32.5834H64.875V26.125Z" fill="black"/>
<path d="M32.5833 32.5834H39.0417V39.0417H32.5833V32.5834Z" fill="black"/>
<path d="M58.4167 32.5834H51.9583V39.0417H58.4167V32.5834Z" fill="black"/>
<path d="M19.6667 32.5834H26.125V39.0417H19.6667V32.5834Z" fill="black"/>
<path d="M71.3333 32.5834H64.875V39.0417H71.3333V32.5834Z" fill="black"/>
<path d="M26.125 84.25V90.7083H64.875V84.25H26.125Z" fill="black"/>
<path d="M58.4167 71.3334V64.875H32.5833V71.3334H58.4167Z" fill="black"/>
<path d="M13.2083 77.7917V84.25H26.125V77.7917H13.2083Z" fill="black"/>
<path d="M13.2083 64.875H6.75V77.7917H13.2083V64.875Z" fill="black"/>
<path d="M0.291664 64.875H6.75V26.125H0.291664V64.875Z" fill="black"/>
<path d="M6.75 26.125H13.2083V13.2084H6.75L6.75 26.125Z" fill="black"/>
<path d="M13.2083 6.75002V13.2084H26.125V6.75002H13.2083Z" fill="black"/>
<path d="M26.125 0.291687V6.75002H64.875V0.291687H26.125Z" fill="black"/>
<path d="M77.7917 13.2084V6.75002H64.875V13.2084H77.7917Z" fill="black"/>
<path d="M77.7917 26.125H84.25V13.2084H77.7917V26.125Z" fill="black"/>
<path d="M84.25 64.875H90.7083V26.125H84.25V64.875Z" fill="black"/>
<path d="M84.25 64.875H77.7917V77.7917H84.25V64.875Z" fill="black"/>
<path d="M77.7917 84.25V77.7917H64.875V84.25H77.7917Z" fill="black"/>
</svg>
