<svg width="30" height="30" viewBox="0 0 30 30" fill="none" xmlns="http://www.w3.org/2000/svg">
<path d="M7.5 19.1667H8.75V20.4167H7.5V19.1667Z" fill="#474350"/>
<path d="M21.25 19.1667H22.5V20.4167H21.25V19.1667Z" fill="#474350"/>
<path d="M18.75 12.9167H20V14.1667H18.75V12.9167Z" fill="#474350"/>
<path d="M17.5 14.1667H18.75V15.4167H17.5V14.1667Z" fill="#474350"/>
<path d="M20 11.6667H21.25V12.9167H20V11.6667Z" fill="#474350"/>
<path d="M8.75 11.6667H10V12.9167H8.75V11.6667Z" fill="#474350"/>
<path d="M10 12.9167H11.25V14.1667H10V12.9167Z" fill="#474350"/>
<path d="M11.25 14.1667H12.5V15.4167H11.25V14.1667Z" fill="#474350"/>
<path d="M22.5 19.1667H23.75V10.4167H22.5V9.16675H21.25V11.6667H22.5V19.1667Z" fill="#474350"/>
<path d="M17.5 16.6667V15.4167H12.5V16.6667H17.5Z" fill="#474350"/>
<path d="M7.5 10.4167H6.25V19.1667H7.5V11.6667H8.75V9.16675H7.5V10.4167Z" fill="#474350"/>
<path d="M8.75 7.91675V9.16675H21.25V7.91675H8.75Z" fill="#474350"/>
<path d="M8.75 20.4167V21.6667H21.25V20.4167H8.75Z" fill="#474350"/>
</svg>
