<svg width="94" height="94" viewBox="0 0 94 94" fill="none" xmlns="http://www.w3.org/2000/svg">
<g filter="url(#filter0_d_72_17)">
<rect width="85" height="85" fill="#D9D9D9"/>
<rect x="1.5" y="1.5" width="82" height="82" stroke="#6B6B6B" stroke-width="3"/>
</g>
<path d="M55.8889 18H28.1111V23.5556H22.5556V29.1111H17V56.8889H22.5556V62.4444H28.1111V68H55.8889V62.4444H61.4444V56.8889H67V29.1111H61.4444V23.5556H55.8889V18ZM55.8889 23.5556V29.1111H61.4444V56.8889H55.8889V62.4444H28.1111V56.8889H22.5556V29.1111H28.1111V23.5556H55.8889ZM30.8889 40.2222H36.4444V45.7778H42V51.3333H36.4444V45.7778H30.8889V40.2222ZM53.1111 34.6667H47.5556V40.2222H42V45.7778H47.5556V40.2222H53.1111V34.6667Z" fill="#474350"/>
<defs>
<filter id="filter0_d_72_17" x="0" y="0" width="94" height="94" filterUnits="userSpaceOnUse" color-interpolation-filters="sRGB">
<feFlood flood-opacity="0" result="BackgroundImageFix"/>
<feColorMatrix in="SourceAlpha" type="matrix" values="0 0 0 0 0 0 0 0 0 0 0 0 0 0 0 0 0 0 127 0" result="hardAlpha"/>
<feOffset dx="5" dy="5"/>
<feGaussianBlur stdDeviation="2"/>
<feComposite in2="hardAlpha" operator="out"/>
<feColorMatrix type="matrix" values="0 0 0 0 0 0 0 0 0 0 0 0 0 0 0 0 0 0 0.25 0"/>
<feBlend mode="normal" in2="BackgroundImageFix" result="effect1_dropShadow_72_17"/>
<feBlend mode="normal" in="SourceGraphic" in2="effect1_dropShadow_72_17" result="shape"/>
</filter>
</defs>
</svg>
