<svg width="48" height="46" viewBox="0 0 48 46" fill="none" xmlns="http://www.w3.org/2000/svg">
<path d="M45.72 32.15H43.44V34.43H38.865V39.005H34.29V43.58H32.01V45.86H48V43.58H45.72V32.15Z" fill="#474350"/>
<path d="M45.7199 7.01001H43.4399V11.57H45.7199V7.01001Z" fill="#474350"/>
<path d="M43.44 29.855H41.145V32.15H43.44V29.855Z" fill="#474350"/>
<path d="M43.44 11.57H41.145V13.865H43.44V11.57Z" fill="#474350"/>
<path d="M43.44 4.71503H41.145V7.01003H43.44V4.71503Z" fill="#474350"/>
<path d="M41.145 13.865H38.865V16.145H41.145V13.865Z" fill="#474350"/>
<path d="M41.145 2.435H38.865V4.715H41.145V2.435Z" fill="#474350"/>
<path d="M38.865 16.145H36.585V18.44H38.865V16.145Z" fill="#474350"/>
<path d="M38.865 11.57H36.585V13.865H38.865V11.57Z" fill="#474350"/>
<path d="M38.865 0.140015H34.29V2.43501H38.865V0.140015Z" fill="#474350"/>
<path d="M41.145 27.575H34.29V29.855H41.145V27.575Z" fill="#474350"/>
<path d="M36.585 18.44H34.29V20.72H36.585V18.44Z" fill="#474350"/>
<path d="M36.585 9.29004H34.29V11.57H36.585V9.29004Z" fill="#474350"/>
<path d="M34.29 29.855H32.01V32.15H34.29V29.855Z" fill="#474350"/>
<path d="M34.29 25.295H32.01V27.575H34.29V25.295Z" fill="#474350"/>
<path d="M34.29 20.72H32.01V23H34.29V20.72Z" fill="#474350"/>
<path d="M34.29 11.57H32.01V13.865H34.29V11.57Z" fill="#474350"/>
<path d="M34.29 7.01001H32.01V9.29001H34.29V7.01001Z" fill="#474350"/>
<path d="M34.29 2.435H32.01V4.715H34.29V2.435Z" fill="#474350"/>
<path d="M32.0101 41.285H29.7151V43.58H32.0101V41.285Z" fill="#474350"/>
<path d="M32.0101 32.15H29.7151V34.43H32.0101V32.15Z" fill="#474350"/>
<path d="M32.0101 23H29.7151V25.295H32.0101V23Z" fill="#474350"/>
<path d="M32.0101 13.865H29.7151V16.145H32.0101V13.865Z" fill="#474350"/>
<path d="M32.0101 4.71503H29.7151V7.01003H32.0101V4.71503Z" fill="#474350"/>
<path d="M29.7151 34.43H27.4351V41.285H29.7151V34.43Z" fill="#474350"/>
<path d="M29.7151 25.295H27.4351V27.575H29.7151V25.295Z" fill="#474350"/>
<path d="M29.7151 16.145H27.4351V18.44H29.7151V16.145Z" fill="#474350"/>
<path d="M29.7151 7.01001H27.4351V9.29001H29.7151V7.01001Z" fill="#474350"/>
<path d="M27.435 32.15H25.155V34.43H27.435V32.15Z" fill="#474350"/>
<path d="M27.435 27.575H25.155V29.855H27.435V27.575Z" fill="#474350"/>
<path d="M27.435 18.44H25.155V20.72H27.435V18.44Z" fill="#474350"/>
<path d="M27.435 9.29004H25.155V11.57H27.435V9.29004Z" fill="#474350"/>
<path d="M25.1551 29.855H22.8601V32.15H25.1551V29.855Z" fill="#474350"/>
<path d="M25.1551 20.72H22.8601V23H25.1551V20.72Z" fill="#474350"/>
<path d="M25.1551 11.57H22.8601V13.865H25.1551V11.57Z" fill="#474350"/>
<path d="M22.8601 32.15H20.5801V34.43H22.8601V32.15Z" fill="#474350"/>
<path d="M22.8601 23H20.5801V25.295H22.8601V23Z" fill="#474350"/>
<path d="M22.8601 13.865H20.5801V16.145H22.8601V13.865Z" fill="#474350"/>
<path d="M20.58 34.43H18.3V36.725H20.58V34.43Z" fill="#474350"/>
<path d="M20.58 25.295H18.3V27.575H20.58V25.295Z" fill="#474350"/>
<path d="M20.58 16.145H18.3V18.44H20.58V16.145Z" fill="#474350"/>
<path d="M20.58 11.57H18.3V13.865H20.58V11.57Z" fill="#474350"/>
<path d="M18.2999 36.725H16.0049V39.005H18.2999V36.725Z" fill="#474350"/>
<path d="M18.2999 27.575H16.0049V29.855H18.2999V27.575Z" fill="#474350"/>
<path d="M18.2999 18.44H16.0049V20.72H18.2999V18.44Z" fill="#474350"/>
<path d="M18.2999 9.29004H16.0049V11.57H18.2999V9.29004Z" fill="#474350"/>
<path d="M16.0051 39.005H13.7251V41.285H16.0051V39.005Z" fill="#474350"/>
<path d="M16.0051 29.855H13.7251V32.15H16.0051V29.855Z" fill="#474350"/>
<path d="M16.0051 20.72H13.7251V23H16.0051V20.72Z" fill="#474350"/>
<path d="M16.0051 7.01001H13.7251V9.29001H16.0051V7.01001Z" fill="#474350"/>
<path d="M13.7249 41.285H11.4299V43.58H13.7249V41.285Z" fill="#474350"/>
<path d="M13.7249 32.15H11.4299V34.43H13.7249V32.15Z" fill="#474350"/>
<path d="M13.7249 23H11.4299V25.295H13.7249V23Z" fill="#474350"/>
<path d="M13.7249 18.44H11.4299V20.72H13.7249V18.44Z" fill="#474350"/>
<path d="M13.7249 4.71503H11.4299V7.01003H13.7249V4.71503Z" fill="#474350"/>
<path d="M11.4299 39.005H9.1499V41.285H11.4299V39.005Z" fill="#474350"/>
<path d="M11.4299 34.43H9.1499V36.725H11.4299V34.43Z" fill="#474350"/>
<path d="M11.4299 25.295H9.1499V27.575H11.4299V25.295Z" fill="#474350"/>
<path d="M11.4299 16.145H9.1499V18.44H11.4299V16.145Z" fill="#474350"/>
<path d="M11.4299 2.435H9.1499V4.715H11.4299V2.435Z" fill="#474350"/>
<path d="M6.87 41.285H4.575V39.005H2.295V34.43H0V45.86H11.43V43.58H6.87V41.285Z" fill="#474350"/>
<path d="M9.15012 36.725H6.87012V39.005H9.15012V36.725Z" fill="#474350"/>
<path d="M9.15012 27.575H6.87012V29.855H9.15012V27.575Z" fill="#474350"/>
<path d="M9.15012 13.865H6.87012V16.145H9.15012V13.865Z" fill="#474350"/>
<path d="M9.14995 0.140015H4.57495V2.43501H9.14995V0.140015Z" fill="#474350"/>
<path d="M6.86995 34.43H4.57495V36.725H6.86995V34.43Z" fill="#474350"/>
<path d="M6.86995 29.855H4.57495V32.15H6.86995V29.855Z" fill="#474350"/>
<path d="M6.86995 11.57H4.57495V13.865H6.86995V11.57Z" fill="#474350"/>
<path d="M4.57492 32.15H2.29492V34.43H4.57492V32.15Z" fill="#474350"/>
<path d="M4.57492 9.29004H2.29492V11.57H4.57492V9.29004Z" fill="#474350"/>
<path d="M4.57492 2.435H2.29492V4.715H4.57492V2.435Z" fill="#474350"/>
<path d="M2.295 4.71503H0V9.29003H2.295V4.71503Z" fill="#474350"/>
</svg>
