<svg width="50" height="50" viewBox="0 0 50 50" fill="none" xmlns="http://www.w3.org/2000/svg">
<path d="M30.5556 20.8333H32.6389V18.75H30.5556V20.8333Z" fill="black"/>
<path d="M32.6389 22.9167H34.7222V20.8333H32.6389V22.9167Z" fill="black"/>
<path d="M36.8056 27.0833H38.8889V25H36.8056V27.0833Z" fill="black"/>
<path d="M38.8889 29.1667H40.9722V27.0833H38.8889V29.1667Z" fill="black"/>
<path d="M30.5556 29.1667H32.6389V27.0833H30.5556V29.1667Z" fill="black"/>
<path d="M32.6389 27.0833H34.7222V25H32.6389V27.0833Z" fill="black"/>
<path d="M34.7222 25H36.8056V22.9167H34.7222V25Z" fill="black"/>
<path d="M36.8056 22.9167H38.8889V20.8333H36.8056V22.9167Z" fill="black"/>
<path d="M38.8889 20.8333H40.9722V18.75H38.8889V20.8333Z" fill="black"/>
<path d="M20.1389 16.6667V14.5833H15.9722V16.6667H20.1389Z" fill="black"/>
<path d="M15.9722 18.75V16.6667H11.8056V18.75H15.9722Z" fill="black"/>
<path d="M11.8056 18.75H9.72223V31.25H11.8056V18.75Z" fill="black"/>
<path d="M11.8056 31.25V33.3333H15.9722V31.25H11.8056Z" fill="black"/>
<path d="M15.9722 33.3333V35.4167H20.1389V33.3333H15.9722Z" fill="black"/>
<path d="M20.1389 35.4167V37.5H24.3056V35.4167H20.1389Z" fill="black"/>
<path d="M24.3056 35.4167H26.3889V14.5833H24.3056V35.4167Z" fill="black"/>
<path d="M24.3056 14.5833V12.5H20.1389V14.5833H24.3056Z" fill="black"/>
</svg>
